:SAMPLES-PER-SECOND 30
:FULLY-SPECIFIED
:DEGREES
601
root  0.495579 37.6122 -0.509289 54.8646 87.798 60.3294
RightUpLeg  -21.9305 -5.66283 -0.65009
RightLeg  15.5019 1.1825 0.351001
RightFoot  7.40611 0.0813867 -0.197955
RightToes  3.49245e-010 0 -3.6325e-017
Spine  4.39095 -1.8812 0.602949
Spine1  8.58166 -2.40404 1.80847
HEad  -17.0967 2.1082 -3.00774
LeftShoulder1  -0.434595 4.62324 -32.6932
LeftArm  17.3063 -12.2234 -45.0235
LeftForeArm  16.6685 -27.0607 -4.92703
LeftHand  -0.0217628 5.46909 4.73059
RightShoulder  -0.883634 -5.92599 29.8823
RightArm  12.8427 -9.44623 42.4858
RightForeArm  22.6692 6.97704 6.42634
RightHand  -0.0602174 5.01858 -1.00257
LeftUpLeg  19.076 2.90036 -2.65053
LeftLeg  18.7154 -0.602474 0.136662
LeftFoot  -23.2475 0.115091 -0.200935
LeftToes  -5.6298e-010 8.41567e-011 -1.83319e-011
602
root  2.03684 37.4222 -0.358216 1.85022 88.4273 7.4313
RightUpLeg  -22.9135 -4.64 1.52623
RightLeg  22.2471 1.30391 0.347154
RightFoot  5.50206 0.469032 -2.93266
RightToes  3.49245e-010 0 -3.6325e-017
Spine  4.60264 -1.80363 4.95449
Spine1  8.21851 -1.60295 0.18749
HEad  -16.6838 1.53191 -2.71627
LeftShoulder1  -0.402052 4.52737 -33.1353
LeftArm  20.5393 -8.9227 -44.8494
LeftForeArm  15.0808 -25.1997 -4.54961
LeftHand  -0.0148098 5.71515 4.11179
RightShoulder  -0.910503 -5.98536 30.1031
RightArm  13.1509 -7.53113 42.8488
RightForeArm  21.4748 6.98473 6.64372
RightHand  -0.090531 4.18171 -1.37071
LeftUpLeg  18.8868 2.53828 -0.178213
LeftLeg  24.5294 -1.65936 -0.529557
LeftFoot  -22.3091 -0.328382 -4.87471
LeftToes  -5.6298e-010 8.41567e-011 -1.83319e-011
603
root  3.50912 37.3062 -0.143129 -39.5034 87.4352 -34.2963
RightUpLeg  -23.1191 -3.82016 3.41142
RightLeg  26.5989 0.902797 0.257658
RightFoot  2.54507 0.571373 -4.52061
RightToes  3.49245e-010 0 -3.6325e-017
Spine  4.16345 -1.64088 7.8577
Spine1  8.20595 -1.00785 -0.0180196
HEad  -15.7845 1.72182 -2.3393
LeftShoulder1  -0.41657 4.55437 -33.5036
LeftArm  22.5735 -4.98696 -44.8115
LeftForeArm  14.259 -22.4197 -4.59188
LeftHand  -0.0115478 5.85223 3.95008
RightShoulder  -0.879124 -5.90119 30.06
RightArm  13.1402 -5.04952 43.7575
RightForeArm  20.7328 6.50792 6.77561
RightHand  -0.115512 4.01282 -1.67074
LeftUpLeg  15.9671 3.14654 2.77785
LeftLeg  33.3672 -3.83334 -2.3926
LeftFoot  -17.5056 -0.422297 -10.2354
LeftToes  -5.6298e-010 8.41567e-011 -1.83319e-011
604
root  4.86748 37.3369 0.0933503 -58.5979 86.6935 -53.6225
RightUpLeg  -21.9651 -3.81931 4.89759
RightLeg  28.6383 0.37234 -0.022326
RightFoot  -0.566456 0.451295 -4.81593
RightToes  3.49245e-010 0 -3.6325e-017
Spine  4.29923 -1.64713 9.82208
Spine1  7.62386 -0.746344 0.349591
HEad  -14.6772 1.07476 -2.29008
LeftShoulder1  -0.471382 4.67846 -33.9655
LeftArm  19.1333 -1.64711 -44.6014
LeftForeArm  19.7857 -18.0602 -6.84666
LeftHand  -0.00901877 6.21376 3.07913
RightShoulder  -0.825116 -5.78664 29.5275
RightArm  12.7158 -2.40003 45.4087
RightForeArm  20.1244 5.98172 6.80225
RightHand  -0.235465 4.46765 -3.07059
LeftUpLeg  10.7659 2.67321 5.14731
LeftLeg  44.0084 -4.2815 -3.93481
LeftFoot  -6.23234 0.589173 -12.9206
LeftToes  -5.6298e-010 8.41567e-011 -1.83319e-011
605
root  6.11441 37.3929 0.282289 -75.0049 85.9024 -70.3648
RightUpLeg  -20.6201 -4.15972 6.2489
RightLeg  29.7627 0.0347687 -0.230182
RightFoot  -3.32668 0.324154 -4.9359
RightToes  3.49245e-010 0 -3.6325e-017
Spine  4.31437 -1.65874 12.1829
Spine1  7.38442 -0.356296 0.00573029
HEad  -13.9916 0.475306 -2.27217
LeftShoulder1  -0.510917 4.75691 -34.6096
LeftArm  10.6885 0.790985 -44.0127
LeftForeArm  30.1641 -12.7144 -9.75011
LeftHand  -0.0181303 6.80453 1.42594
RightShoulder  -0.871482 -5.90499 29.6943
RightArm  12.8258 1.00757 46.3203
RightForeArm  20.3083 6.36912 6.89605
RightHand  -0.135132 4.59218 -1.85749
LeftUpLeg  4.08378 0.983977 6.38447
LeftLeg  54.2355 -2.61499 -3.44109
LeftFoot  7.16435 1.72948 -11.0473
LeftToes  -5.6298e-010 8.41567e-011 -1.83319e-011
606
root  7.28717 37.5197 0.450682 -77.8201 85.405 -72.8962
RightUpLeg  -18.3658 -4.22622 6.89047
RightLeg  30.1245 -0.145561 -0.347686
RightFoot  -5.62675 0.200593 -4.76763
RightToes  3.49245e-010 0 -3.6325e-017
Spine  5.01476 -1.42481 13.7758
Spine1  7.37523 0.378378 -0.557511
HEad  -14.0259 -0.403987 -1.80565
LeftShoulder1  -0.479617 4.67608 -34.7456
LeftArm  3.26976 3.29239 -43.5961
LeftForeArm  38.5599 -8.22445 -10.7907
LeftHand  -0.0327109 7.79444 0.422701
RightShoulder  -0.873902 -5.91015 29.7174
RightArm  13.1467 4.57229 47.2793
RightForeArm  19.4722 7.35774 7.06806
RightHand  -0.127851 4.32412 -1.79078
LeftUpLeg  -1.19153 0.00868382 6.92346
LeftLeg  61.525 -1.897 -3.22783
LeftFoot  11.5028 1.38125 -7.04653
LeftToes  -5.6298e-010 8.41567e-011 -1.83319e-011
607
root  8.51712 37.8071 0.639366 -73.4663 85.7523 -67.9126
RightUpLeg  -14.9063 -4.44662 6.45304
RightLeg  29.0656 0.232184 -0.114946
RightFoot  -7.38675 0.104255 -4.46887
RightToes  3.49245e-010 0 -3.6325e-017
Spine  5.35439 -0.981113 14.0528
Spine1  7.88246 1.18977 -1.4071
HEad  -13.7907 -0.93406 -1.28725
LeftShoulder1  -0.437061 4.57531 -34.6139
LeftArm  -0.470448 5.86826 -43.0811
LeftForeArm  42.442 -5.62016 -10.6263
LeftHand  -0.0508206 8.11903 -0.26205
RightShoulder  -0.871271 -5.90021 29.7569
RightArm  14.1756 8.62946 48.3295
RightForeArm  17.7807 8.02328 7.39626
RightHand  -0.204408 5.08629 -2.56882
LeftUpLeg  -5.50197 -0.556517 6.62054
LeftLeg  65.9233 -1.51678 -3.04106
LeftFoot  7.635 0.917265 -5.78791
LeftToes  -5.6298e-010 8.41567e-011 -1.83319e-011
